<svg width="28" height="28" viewBox="0 0 28 28" fill="none" xmlns="http://www.w3.org/2000/svg">
<path d="M19.5418 4.15301V2.33301C19.5418 1.85467 19.1451 1.45801 18.6668 1.45801C18.1884 1.45801 17.7918 1.85467 17.7918 2.33301V4.08301H10.2084V2.33301C10.2084 1.85467 9.81177 1.45801 9.33344 1.45801C8.8551 1.45801 8.45844 1.85467 8.45844 2.33301V4.15301C5.30844 4.44467 3.7801 6.32301 3.54677 9.11134C3.52344 9.44967 3.80344 9.72967 4.1301 9.72967H23.8701C24.2084 9.72967 24.4884 9.43801 24.4534 9.11134C24.2201 6.32301 22.6918 4.44467 19.5418 4.15301Z" fill="#D9D9D9"/>
<path d="M22.1667 17.5C19.5883 17.5 17.5 19.5883 17.5 22.1667C17.5 23.0417 17.745 23.87 18.1767 24.57C18.9817 25.9233 20.4633 26.8333 22.1667 26.8333C23.87 26.8333 25.3517 25.9233 26.1567 24.57C26.5883 23.87 26.8333 23.0417 26.8333 22.1667C26.8333 19.5883 24.745 17.5 22.1667 17.5ZM24.5817 21.665L22.0967 23.9633C21.9333 24.115 21.7117 24.1967 21.5017 24.1967C21.28 24.1967 21.0583 24.115 20.8833 23.94L19.7283 22.785C19.39 22.4467 19.39 21.8867 19.7283 21.5483C20.0667 21.21 20.6267 21.21 20.965 21.5483L21.525 22.1083L23.3917 20.3817C23.7417 20.055 24.3017 20.0783 24.6283 20.4283C24.955 20.7783 24.9317 21.3267 24.5817 21.665Z" fill="#D9D9D9"/>
<path d="M23.3333 11.4805H4.66667C4.025 11.4805 3.5 12.0055 3.5 12.6471V19.8338C3.5 23.3338 5.25 25.6671 9.33333 25.6671H15.085C15.89 25.6671 16.45 24.8855 16.1933 24.1271C15.96 23.4505 15.7617 22.7038 15.7617 22.1671C15.7617 18.6321 18.6433 15.7505 22.1783 15.7505C22.5167 15.7505 22.855 15.7738 23.1817 15.8321C23.8817 15.9371 24.5117 15.3888 24.5117 14.6888V12.6588C24.5 12.0055 23.975 11.4805 23.3333 11.4805ZM10.745 21.2455C10.5233 21.4555 10.22 21.5838 9.91667 21.5838C9.61333 21.5838 9.31 21.4555 9.08833 21.2455C8.87833 21.0238 8.75 20.7205 8.75 20.4171C8.75 20.1138 8.87833 19.8105 9.08833 19.5888C9.205 19.4838 9.32167 19.4021 9.47333 19.3438C9.905 19.1571 10.4183 19.2621 10.745 19.5888C10.955 19.8105 11.0833 20.1138 11.0833 20.4171C11.0833 20.7205 10.955 21.0238 10.745 21.2455ZM10.745 17.1621C10.6867 17.2088 10.6283 17.2555 10.57 17.3021C10.5 17.3488 10.43 17.3838 10.36 17.4071C10.29 17.4421 10.22 17.4655 10.15 17.4771C10.0683 17.4888 9.98667 17.5005 9.91667 17.5005C9.61333 17.5005 9.31 17.3721 9.08833 17.1621C8.87833 16.9405 8.75 16.6371 8.75 16.3338C8.75 16.0305 8.87833 15.7271 9.08833 15.5055C9.35667 15.2371 9.765 15.1088 10.15 15.1905C10.22 15.2021 10.29 15.2255 10.36 15.2605C10.43 15.2838 10.5 15.3188 10.57 15.3655C10.6283 15.4121 10.6867 15.4588 10.745 15.5055C10.955 15.7271 11.0833 16.0305 11.0833 16.3338C11.0833 16.6371 10.955 16.9405 10.745 17.1621ZM14.8283 17.1621C14.6067 17.3721 14.3033 17.5005 14 17.5005C13.6967 17.5005 13.3933 17.3721 13.1717 17.1621C12.9617 16.9405 12.8333 16.6371 12.8333 16.3338C12.8333 16.0305 12.9617 15.7271 13.1717 15.5055C13.615 15.0738 14.3967 15.0738 14.8283 15.5055C15.0383 15.7271 15.1667 16.0305 15.1667 16.3338C15.1667 16.6371 15.0383 16.9405 14.8283 17.1621Z" fill="#D9D9D9"/>
</svg>
