<svg width="80" height="25" viewBox="0 0 80 25" fill="none" xmlns="http://www.w3.org/2000/svg">
<g id="Black">
<path id="Vector" d="M27.1174 0.177208C26.9491 0.28348 26.7543 0.513739 26.6569 0.735142C26.4886 1.09824 26.4797 1.45249 26.4797 12.0089V22.9108L26.6834 23.2916C27.1617 24.1949 28.5343 24.2569 29.0657 23.389C29.2694 23.0702 29.2694 23.0613 29.296 18.8016L29.3225 14.5329L32.6613 14.5064C35.8583 14.4709 36.0266 14.4621 36.62 14.2672C38.462 13.665 39.8081 12.2923 40.4104 10.406C40.9594 8.70562 40.9594 5.80968 40.4104 4.11817C39.879 2.46208 38.6569 1.07167 37.231 0.496027C36.0886 0.0355091 35.6635 8.58307e-05 31.3772 8.58307e-05C27.5513 8.58307e-05 27.4008 0.00894165 27.1174 0.177208ZM34.7867 2.92259C36.3188 3.17056 37.2487 3.92333 37.7447 5.30488C37.9572 5.9071 38.0635 7.75802 37.9218 8.50193C37.5941 10.2466 36.5225 11.3447 34.893 11.6016C34.5742 11.6458 33.1927 11.6901 31.82 11.6901H29.3137V7.26208V2.83403H31.7757C33.1218 2.83403 34.4768 2.87831 34.7867 2.92259Z" fill="black"/>
<path id="Vector_2" d="M46.7336 0.0888357C45.3254 0.310238 43.5719 0.877028 43.0848 1.25784C42.766 1.50581 42.5978 1.9309 42.5978 2.48884C42.5978 3.32131 43.014 3.80839 43.7225 3.80839C43.9262 3.80839 44.369 3.67555 44.7852 3.49843C46.1048 2.93164 47.7786 2.64825 48.797 2.83422C50.0634 3.05563 50.5771 3.69326 50.6391 5.10138L50.6745 5.90729L48.9653 5.96928C45.2546 6.10212 43.5276 6.55378 42.5535 7.63422C41.6236 8.67039 41.4553 10.5302 42.155 12.0268C43.1911 14.2497 46.5387 15.2947 48.9564 14.1523C49.5586 13.8689 50.2937 13.1958 50.5594 12.6911L50.7188 12.3722L50.7631 12.9656C50.8516 14.0372 51.3741 14.5243 52.4457 14.5243C53.1896 14.5243 53.5527 14.3294 53.845 13.7626L54.0664 13.3287V8.94493C54.0664 4.04751 54.0398 3.83496 53.4465 2.59511C52.8974 1.41725 51.8435 0.620201 50.3468 0.221677C49.7181 0.0534115 47.4863 -0.0262938 46.7336 0.0888357ZM50.6391 8.93607C50.6125 9.59142 50.5594 9.81282 50.3203 10.2999C49.7712 11.4069 48.7705 12.0446 47.566 12.0446C46.7247 12.0446 46.2376 11.8497 45.7594 11.3449C45.1129 10.6542 45.0155 9.65341 45.5291 8.99806C45.9896 8.41356 47.0701 8.16559 49.231 8.15673L50.6745 8.14788L50.6391 8.93607Z" fill="black"/>
<path id="Vector_3" d="M59.938 0.0887003C59.2029 0.20383 58.1313 0.584641 57.5557 0.930029C56.9712 1.29313 56.245 2.03704 55.9793 2.55069C55.4922 3.50715 55.4125 4.94184 55.7933 5.96029C56.0147 6.53593 56.5904 7.21785 57.1837 7.59866C57.8302 7.99719 58.5033 8.20088 60.4782 8.59055C62.6391 9.00678 63.1262 9.20162 63.4007 9.77726C63.6133 10.2024 63.6221 10.2821 63.4893 10.7337C63.073 12.2481 60.124 12.4429 57.2457 11.1588C56.9269 11.0083 56.5195 10.8931 56.3513 10.8931C55.7048 10.8931 55.2443 11.4068 55.2443 12.1241C55.2443 13.0009 55.7756 13.5234 57.1837 14.0193C58.3262 14.4267 59.2384 14.5596 60.9299 14.5596C62.2849 14.5684 62.5682 14.5418 63.1882 14.3647C65.1719 13.7891 66.3587 12.6909 66.6952 11.088C66.7483 10.8046 66.7749 10.2466 66.7483 9.80383C66.6952 8.82966 66.3587 8.07689 65.7299 7.52782C64.9328 6.81933 64.304 6.58907 61.7801 6.10199C60.6022 5.88058 59.7786 5.66804 59.5572 5.55291C59.0612 5.27837 58.8044 4.86213 58.8044 4.32191C58.8044 3.2149 59.6989 2.62154 61.3727 2.6304C62.3734 2.6304 63.0642 2.79866 64.1446 3.2946C64.8 3.59571 64.9948 3.64885 65.3313 3.60457C66.0487 3.52486 66.4915 2.87837 66.3941 2.0459C66.3587 1.70936 66.2878 1.58538 65.9867 1.31084C65.5705 0.947742 64.6051 0.513793 63.6044 0.256967C62.8251 0.0532761 60.7705 -0.0441408 59.938 0.0887003Z" fill="black"/>
<path id="Vector_4" d="M72.3011 0.133089C70.2553 0.505045 68.794 1.56778 68.2804 3.04674C67.7667 4.55228 68.0944 6.19951 69.0951 7.13825C69.8213 7.82017 70.5475 8.09471 72.7704 8.53752C73.8509 8.75892 74.9402 9.0246 75.1881 9.13087C75.9498 9.45855 76.2332 10.0962 75.9409 10.849C75.6398 11.646 74.9047 11.9825 73.4612 11.9825C72.1239 11.9914 70.9815 11.7346 69.7416 11.1412C69.414 10.9907 69.0686 10.8932 68.8206 10.8932C68.4929 10.8932 68.3867 10.9464 68.0944 11.2386C67.7756 11.5574 67.749 11.6194 67.749 12.08C67.749 12.9213 68.0236 13.2667 69.0774 13.7626C70.2199 14.3028 71.814 14.6128 73.4612 14.6128C76.18 14.6039 78.1106 13.6475 78.9343 11.894C79.1645 11.3892 79.2088 11.1766 79.2442 10.3973C79.2974 9.1663 79.0937 8.44896 78.4737 7.77589C77.6856 6.91685 76.9594 6.6246 74.3114 6.11095C72.3099 5.72128 71.8051 5.52645 71.4863 5.04822C71.3092 4.79139 71.2826 4.64969 71.3092 4.23346C71.3712 3.33899 71.9911 2.82534 73.2132 2.64822C74.2405 2.49766 75.321 2.70135 76.676 3.29471C77.3402 3.58696 77.5616 3.6401 77.8538 3.60468C78.4737 3.52497 78.9077 2.94933 78.9077 2.20541C78.9077 1.65634 78.6509 1.31095 77.9512 0.947849C76.366 0.124233 74.1343 -0.203443 72.3011 0.133089Z" fill="black"/>
<path id="Vector_5" d="M7.64283 0.487076C6.92549 0.797038 6.79265 1.73578 7.38601 2.276L7.70483 2.56826H12.9653C16.4458 2.56826 18.3941 2.60368 18.7041 2.66567C20.4045 3.01992 21.9188 4.46346 22.3617 6.15497C22.6185 7.15571 22.4856 8.43984 22.0428 9.3166L21.8569 9.67969L21.2724 9.05091C20.6524 8.39556 20.2273 8.18302 19.758 8.29814C19.4214 8.36899 19.0495 8.75866 18.9875 9.08634C18.8901 9.60885 19.0318 9.90995 19.6871 10.6007C20.2893 11.2295 20.307 11.2738 20.1476 11.3889C19.9085 11.566 19.0849 11.8671 18.5624 11.9646C18.3233 12.0088 15.7993 12.0443 12.9565 12.0443C7.20889 12.0443 7.42143 12.0266 7.12918 12.6288C6.95206 13.0184 6.96092 13.3638 7.17346 13.7092C7.50999 14.2671 7.448 14.2583 12.9919 14.2583C15.755 14.2583 18.3056 14.214 18.6421 14.1697C19.5277 14.0546 20.5904 13.7004 21.2546 13.293L21.8303 12.9476L22.4591 13.5587C23.0613 14.1343 23.1233 14.1697 23.4952 14.1697C24.0089 14.1697 24.2834 14.0457 24.4694 13.7269C24.7705 13.2221 24.6288 12.5933 24.0886 12.0886C23.9292 11.938 23.7343 11.7166 23.6369 11.5926L23.4687 11.3535L23.8583 10.6184C24.4694 9.46715 24.6554 8.68781 24.6554 7.30626C24.6554 6.38523 24.62 6.02213 24.4605 5.4642C23.6812 2.74538 21.4229 0.788182 18.651 0.442795C18.2436 0.389658 15.8081 0.354234 12.9299 0.354234C8.83841 0.363091 7.87309 0.380802 7.64283 0.487076Z" fill="black"/>
<path id="Vector_6" d="M0.522509 6.24378C0.274539 6.37662 0 6.8637 0 7.16481C0 7.5102 0.24797 7.953 0.522509 8.0947C0.867897 8.27182 1.49668 8.27182 1.75351 8.0947C2.38229 7.66075 2.34686 6.58916 1.68266 6.24378C1.36384 6.07551 0.823616 6.07551 0.522509 6.24378Z" fill="black"/>
<path id="Vector_7" d="M4.33061 6.31449C4.1712 6.42076 3.97636 6.6156 3.91437 6.73073C3.73725 7.07611 3.84352 7.59862 4.15348 7.91744L4.42802 8.19198L8.74979 8.21855L13.0716 8.24512V7.4215C13.0627 6.96984 13.0893 6.49161 13.1336 6.34991L13.1955 6.1108H8.91806H4.63171L4.33061 6.31449Z" fill="black"/>
</g>
</svg>
