<svg width="20" height="20" viewBox="0 0 20 20" fill="none" xmlns="http://www.w3.org/2000/svg">
<g id="vuesax/bold/key-square">
<path id="Vector" d="M11.0417 9.99996C11.617 9.99996 12.0833 9.53359 12.0833 8.95829C12.0833 8.383 11.617 7.91663 11.0417 7.91663C10.4664 7.91663 10 8.383 10 8.95829C10 9.53359 10.4664 9.99996 11.0417 9.99996Z" fill="#0A183F"/>
<path id="Vector_2" d="M13.4916 1.66663H6.50829C3.47496 1.66663 1.66663 3.47496 1.66663 6.50829V13.4833C1.66663 16.525 3.47496 18.3333 6.50829 18.3333H13.4833C16.5166 18.3333 18.325 16.525 18.325 13.4916V6.50829C18.3333 3.47496 16.525 1.66663 13.4916 1.66663ZM13.2416 11.225C12.3833 12.075 11.1583 12.3416 10.075 12L9.19163 12.875C9.11663 12.95 8.98329 12.95 8.89996 12.875L8.09163 12.0666C7.97496 11.95 7.77496 11.95 7.64996 12.0666C7.52496 12.1833 7.53329 12.3833 7.64996 12.5083L8.45829 13.3166C8.54163 13.4 8.54163 13.5333 8.45829 13.6083L8.11663 13.95C7.97496 14.1 7.69996 14.1916 7.49996 14.1666L6.59163 14.0416C6.29163 14 6.01663 13.7166 5.96663 13.4166L5.84163 12.5083C5.80829 12.3083 5.90829 12.0333 6.04163 11.8916L7.99996 9.93329C7.66663 8.84996 7.92496 7.62496 8.78329 6.76663C10.0083 5.54163 12.0083 5.54163 13.2416 6.76663C14.475 7.99163 14.475 9.99163 13.2416 11.225Z" fill="#0A183F"/>
</g>
</svg>
