<svg width="18" height="18" viewBox="0 0 18 18" fill="none" xmlns="http://www.w3.org/2000/svg">
<g id="vuesax/linear/people">
<g id="people">
<g id="Group">
<path id="Vector" d="M13.5001 5.37C13.4551 5.3625 13.4026 5.3625 13.3576 5.37C12.3226 5.3325 11.4976 4.485 11.4976 3.435C11.4976 2.3625 12.3601 1.5 13.4326 1.5C14.5051 1.5 15.3676 2.37 15.3676 3.435C15.3601 4.485 14.5351 5.3325 13.5001 5.37Z" stroke="#6755D6" stroke-width="1.5" stroke-linecap="round" stroke-linejoin="round"/>
<path id="Vector_2" d="M12.7276 10.8301C13.7551 11.0026 14.8876 10.8226 15.6826 10.2901C16.7401 9.58512 16.7401 8.43012 15.6826 7.72512C14.8801 7.19262 13.7326 7.01262 12.7051 7.19262" stroke="#6755D6" stroke-width="1.5" stroke-linecap="round" stroke-linejoin="round"/>
</g>
<g id="Group_2">
<path id="Vector_3" d="M4.47749 5.37C4.52249 5.3625 4.57499 5.3625 4.61999 5.37C5.65499 5.3325 6.47999 4.485 6.47999 3.435C6.47999 2.3625 5.61749 1.5 4.54499 1.5C3.47249 1.5 2.60999 2.37 2.60999 3.435C2.61749 4.485 3.44249 5.3325 4.47749 5.37Z" stroke="#6755D6" stroke-width="1.5" stroke-linecap="round" stroke-linejoin="round"/>
<path id="Vector_4" d="M5.24996 10.8301C4.22246 11.0026 3.08996 10.8226 2.29496 10.2901C1.23746 9.58512 1.23746 8.43012 2.29496 7.72512C3.09746 7.19262 4.24495 7.01262 5.27245 7.19262" stroke="#6755D6" stroke-width="1.5" stroke-linecap="round" stroke-linejoin="round"/>
</g>
<g id="Group_3">
<path id="Vector_5" d="M9.00006 10.9725C8.95506 10.965 8.90256 10.965 8.85756 10.9725C7.82256 10.935 6.99756 10.0875 6.99756 9.03754C6.99756 7.96504 7.86006 7.10254 8.93256 7.10254C10.0051 7.10254 10.8676 7.97254 10.8676 9.03754C10.8601 10.0875 10.0351 10.9425 9.00006 10.9725Z" stroke="#6755D6" stroke-width="1.5" stroke-linecap="round" stroke-linejoin="round"/>
<path id="Vector_6" d="M6.81754 13.335C5.76004 14.04 5.76004 15.195 6.81754 15.9C8.01754 16.7025 9.98254 16.7025 11.1825 15.9C12.24 15.195 12.24 14.04 11.1825 13.335C9.99004 12.54 8.01754 12.54 6.81754 13.335Z" stroke="#6755D6" stroke-width="1.5" stroke-linecap="round" stroke-linejoin="round"/>
</g>
</g>
</g>
</svg>
