<svg width="32" height="31" viewBox="0 0 32 31" fill="none" xmlns="http://www.w3.org/2000/svg">
<path d="M23.3045 10.0359C23.2141 10.023 23.1236 10.023 23.0332 10.0359C21.0311 9.97134 19.4424 8.33092 19.4424 6.31592C19.4424 4.26217 21.1086 2.58301 23.1753 2.58301C25.229 2.58301 26.9082 4.24926 26.9082 6.31592C26.8953 8.33092 25.3066 9.97134 23.3045 10.0359Z" fill="#D6D9DF"/>
<path d="M27.5154 18.988C26.0687 19.9568 24.0408 20.3184 22.1679 20.073C22.6587 19.0139 22.917 17.8384 22.9299 16.5984C22.9299 15.3068 22.6458 14.0797 22.1033 13.0076C24.0149 12.7493 26.0429 13.1109 27.5024 14.0797C29.5433 15.423 29.5433 17.6318 27.5154 18.988Z" fill="#D6D9DF"/>
<path d="M8.97999 10.0359C9.07041 10.023 9.16083 10.023 9.25124 10.0359C11.2533 9.97134 12.8421 8.33092 12.8421 6.31592C12.8421 4.24926 11.1758 2.58301 9.10916 2.58301C7.05541 2.58301 5.38916 4.24926 5.38916 6.31592C5.38916 8.33092 6.97791 9.97134 8.97999 10.0359Z" fill="#D6D9DF"/>
<path d="M9.12207 16.5977C9.12207 17.8506 9.39332 19.039 9.88415 20.111C8.0629 20.3048 6.16415 19.9173 4.76915 19.0002C2.72832 17.644 2.72832 15.4352 4.76915 14.079C6.15123 13.149 8.10165 12.7744 9.93582 12.981C9.40623 14.066 9.12207 15.2931 9.12207 16.5977Z" fill="#D6D9DF"/>
<path d="M16.3166 20.4987C16.2132 20.4858 16.097 20.4858 15.9807 20.4987C13.6041 20.4212 11.7053 18.4708 11.7053 16.0683C11.7182 13.6142 13.6945 11.625 16.1616 11.625C18.6157 11.625 20.6049 13.6142 20.6049 16.0683C20.592 18.4708 18.7062 20.4212 16.3166 20.4987Z" fill="#D6D9DF"/>
<path d="M12.1188 23.1717C10.1684 24.4763 10.1684 26.6204 12.1188 27.9121C14.3405 29.3975 17.983 29.3975 20.2047 27.9121C22.1551 26.6075 22.1551 24.4633 20.2047 23.1717C17.9959 21.6863 14.3534 21.6863 12.1188 23.1717Z" fill="#D6D9DF"/>
</svg>
