<svg width="30" height="29" viewBox="0 0 30 29" fill="none" xmlns="http://www.w3.org/2000/svg">
<path d="M26.0375 9.6791L17.85 3.34743C16.25 2.11493 13.75 2.10285 12.1625 3.33535L3.97495 9.6791C2.79995 10.5853 2.08745 12.3978 2.33745 13.8237L3.91245 22.9345C4.27495 24.9766 6.23745 26.5837 8.37495 26.5837H21.625C23.7375 26.5837 25.7375 24.9403 26.1 22.9224L27.675 13.8116C27.9 12.3978 27.1875 10.5853 26.0375 9.6791ZM15.9375 21.7503C15.9375 22.2458 15.5125 22.6566 15 22.6566C14.4875 22.6566 14.0625 22.2458 14.0625 21.7503V18.1253C14.0625 17.6299 14.4875 17.2191 15 17.2191C15.5125 17.2191 15.9375 17.6299 15.9375 18.1253V21.7503Z" fill="#386BF6"/>
</svg>
