<svg width="31" height="30" viewBox="0 0 31 30" fill="none" xmlns="http://www.w3.org/2000/svg">
<path d="M15.8308 2.5C12.5558 2.5 9.89331 5.1625 9.89331 8.4375C9.89331 11.65 12.4058 14.25 15.6808 14.3625C15.7808 14.35 15.8808 14.35 15.9558 14.3625C15.9808 14.3625 15.9933 14.3625 16.0183 14.3625C16.0308 14.3625 16.0308 14.3625 16.0433 14.3625C19.2433 14.25 21.7558 11.65 21.7683 8.4375C21.7683 5.1625 19.1058 2.5 15.8308 2.5Z" fill="#D6D9DF"/>
<path d="M22.1808 17.6871C18.6933 15.3621 13.0058 15.3621 9.49326 17.6871C7.90576 18.7496 7.03076 20.1871 7.03076 21.7246C7.03076 23.2621 7.90576 24.6871 9.48076 25.7371C11.2308 26.9121 13.5308 27.4996 15.8308 27.4996C18.1308 27.4996 20.4308 26.9121 22.1808 25.7371C23.7558 24.6746 24.6308 23.2496 24.6308 21.6996C24.6183 20.1621 23.7558 18.7371 22.1808 17.6871Z" fill="#D6D9DF"/>
</svg>
