<svg width="20" height="20" viewBox="0 0 20 20" fill="none" xmlns="http://www.w3.org/2000/svg">
<g id="vuesax/bold/sms">
<g id="sms">
<path id="Vector" d="M14.1666 2.91663H5.83329C3.33329 2.91663 1.66663 4.16663 1.66663 7.08329V12.9166C1.66663 15.8333 3.33329 17.0833 5.83329 17.0833H14.1666C16.6666 17.0833 18.3333 15.8333 18.3333 12.9166V7.08329C18.3333 4.16663 16.6666 2.91663 14.1666 2.91663ZM14.5583 7.99163L11.95 10.075C11.4 10.5166 10.7 10.7333 9.99996 10.7333C9.29996 10.7333 8.59163 10.5166 8.04996 10.075L5.44163 7.99163C5.17496 7.77496 5.13329 7.37496 5.34163 7.10829C5.55829 6.84163 5.94996 6.79163 6.21663 7.00829L8.82496 9.09163C9.45829 9.59996 10.5333 9.59996 11.1666 9.09163L13.775 7.00829C14.0416 6.79163 14.4416 6.83329 14.65 7.10829C14.8666 7.37496 14.825 7.77496 14.5583 7.99163Z" fill="#0A183F"/>
</g>
</g>
</svg>
