<svg width="18" height="18" viewBox="0 0 18 18" fill="none" xmlns="http://www.w3.org/2000/svg">
<g id="vuesax/linear/personalcard">
<g id="personalcard">
<path id="Vector" d="M12.75 15.75H5.25C2.25 15.75 1.5 15 1.5 12V6C1.5 3 2.25 2.25 5.25 2.25H12.75C15.75 2.25 16.5 3 16.5 6V12C16.5 15 15.75 15.75 12.75 15.75Z" stroke="#0A183F" stroke-width="1.5" stroke-linecap="round" stroke-linejoin="round"/>
<path id="Vector_2" d="M10.5 6H14.25" stroke="#0A183F" stroke-width="1.5" stroke-linecap="round" stroke-linejoin="round"/>
<path id="Vector_3" d="M11.25 9H14.25" stroke="#0A183F" stroke-width="1.5" stroke-linecap="round" stroke-linejoin="round"/>
<path id="Vector_4" d="M12.75 12H14.25" stroke="#0A183F" stroke-width="1.5" stroke-linecap="round" stroke-linejoin="round"/>
<path id="Vector_5" d="M6.37499 8.46744C7.12471 8.46744 7.73249 7.85967 7.73249 7.10994C7.73249 6.36021 7.12471 5.75244 6.37499 5.75244C5.62526 5.75244 5.01749 6.36021 5.01749 7.10994C5.01749 7.85967 5.62526 8.46744 6.37499 8.46744Z" stroke="#0A183F" stroke-width="1.5" stroke-linecap="round" stroke-linejoin="round"/>
<path id="Vector_6" d="M9 12.2474C8.895 11.1599 8.0325 10.3049 6.945 10.2074C6.57 10.1699 6.1875 10.1699 5.805 10.2074C4.7175 10.3124 3.855 11.1599 3.75 12.2474" stroke="#0A183F" stroke-width="1.5" stroke-linecap="round" stroke-linejoin="round"/>
</g>
</g>
</svg>
