<svg width="18" height="18" viewBox="0 0 18 18" fill="none" xmlns="http://www.w3.org/2000/svg">
<g id="vuesax/linear/airdrop">
<g id="airdrop">
<path id="Vector" d="M10.5975 8.505C10.89 7.275 9.81748 6.20246 8.58748 6.49496C8.00998 6.63746 7.53749 7.10998 7.39499 7.68748C7.10249 8.91748 8.17498 9.98997 9.40498 9.69747C9.98998 9.55497 10.4625 9.0825 10.5975 8.505Z" stroke="#0A183F" stroke-width="1.5" stroke-linecap="round" stroke-linejoin="round"/>
<path id="Vector_2" d="M13.5075 12.8925C14.79 11.6925 15.5925 9.98998 15.5925 8.09248C15.5925 4.44748 12.6375 1.5 9 1.5C5.3625 1.5 2.4075 4.45498 2.4075 8.09248C2.4075 9.99748 3.2175 11.715 4.515 12.915" stroke="#0A183F" stroke-width="1.5" stroke-linecap="round" stroke-linejoin="round"/>
<path id="Vector_3" d="M6.00001 10.9125C5.31001 10.1775 4.88251 9.18747 4.88251 8.09247C4.88251 5.81997 6.72751 3.97498 9.00001 3.97498C11.2725 3.97498 13.1175 5.81997 13.1175 8.09247C13.1175 9.18747 12.69 10.17 12 10.9125" stroke="#0A183F" stroke-width="1.5" stroke-linecap="round" stroke-linejoin="round"/>
<path id="Vector_4" d="M7.72501 12.495L6.64501 13.8375C5.79001 14.91 6.54751 16.4925 7.92001 16.4925H10.0725C11.445 16.4925 12.21 14.9025 11.3475 13.8375L10.2675 12.495C9.62251 11.6775 8.37751 11.6775 7.72501 12.495Z" stroke="#0A183F" stroke-width="1.5" stroke-linecap="round" stroke-linejoin="round"/>
</g>
</g>
</svg>
