<svg width="16" height="16" viewBox="0 0 16 16" fill="none" xmlns="http://www.w3.org/2000/svg">
<g id="icon">
<path id="Union" fill-rule="evenodd" clip-rule="evenodd" d="M6 0.25C5.0335 0.25 4.25 1.0335 4.25 2V2.75H1C0.585786 2.75 0.25 3.08579 0.25 3.5C0.25 3.91421 0.585786 4.25 1 4.25H2.25V12.0001C2.25 14.0712 3.92893 15.7501 6 15.7501H10C12.0711 15.7501 13.75 14.0712 13.75 12.0001V4.25H15C15.4142 4.25 15.75 3.91421 15.75 3.5C15.75 3.08579 15.4142 2.75 15 2.75H11.75V2C11.75 1.0335 10.9665 0.25 10 0.25H6ZM10.25 2.75V2C10.25 1.86193 10.1381 1.75 10 1.75H6C5.86193 1.75 5.75 1.86193 5.75 2V2.75H10.25Z" fill="#002793"/>
<path id="Union_2" fill-rule="evenodd" clip-rule="evenodd" d="M6.75 7C6.75 6.58579 6.41421 6.25 6 6.25C5.58579 6.25 5.25 6.58579 5.25 7V11C5.25 11.4142 5.58579 11.75 6 11.75C6.41421 11.75 6.75 11.4142 6.75 11V7ZM10.75 7C10.75 6.58579 10.4142 6.25 10 6.25C9.58579 6.25 9.25 6.58579 9.25 7V11C9.25 11.4142 9.58579 11.75 10 11.75C10.4142 11.75 10.75 11.4142 10.75 11V7Z" fill="white"/>
</g>
</svg>
