<svg width="14" height="14" viewBox="0 0 14 14" fill="none" xmlns="http://www.w3.org/2000/svg">
<g id="gallery-edit">
<path id="Vector" d="M5.25004 5.83333C5.89437 5.83333 6.41671 5.311 6.41671 4.66667C6.41671 4.02233 5.89437 3.5 5.25004 3.5C4.60571 3.5 4.08337 4.02233 4.08337 4.66667C4.08337 5.311 4.60571 5.83333 5.25004 5.83333Z" stroke="#002793" stroke-linecap="round" stroke-linejoin="round"/>
<path id="Vector_2" d="M7.58329 1.16663H5.24996C2.33329 1.16663 1.16663 2.33329 1.16663 5.24996V8.74996C1.16663 11.6666 2.33329 12.8333 5.24996 12.8333H8.74996C11.6666 12.8333 12.8333 11.6666 12.8333 8.74996V5.83329" stroke="#002793" stroke-linecap="round" stroke-linejoin="round"/>
<path id="Vector_3" d="M11.165 1.51088L9.04748 3.62838C8.96581 3.71005 8.88414 3.86755 8.87248 3.98421L8.75581 4.79505C8.71498 5.08671 8.91914 5.29088 9.21081 5.25005L10.0216 5.13338C10.1325 5.11588 10.2958 5.04005 10.3775 4.95838L12.495 2.84088C12.8625 2.47338 13.0316 2.05338 12.495 1.51671C11.9525 0.96838 11.5325 1.14338 11.165 1.51088Z" stroke="#002793" stroke-miterlimit="10" stroke-linecap="round" stroke-linejoin="round"/>
<path id="Vector_4" d="M10.8617 1.81396C11.0425 2.45563 11.5442 2.9573 12.1859 3.13813" stroke="#002793" stroke-miterlimit="10" stroke-linecap="round" stroke-linejoin="round"/>
<path id="Vector_5" d="M1.5575 11.0542L4.43333 9.12333C4.89416 8.81416 5.55916 8.84916 5.97333 9.20499L6.16583 9.37416C6.62083 9.76499 7.35583 9.76499 7.81083 9.37416L10.2375 7.29166C10.6925 6.90083 11.4275 6.90083 11.8825 7.29166L12.8333 8.10833" stroke="#002793" stroke-linecap="round" stroke-linejoin="round"/>
</g>
</svg>
