<svg width="18" height="18" viewBox="0 0 18 18" fill="none" xmlns="http://www.w3.org/2000/svg">
<g id="Gender">
<path id="Vector" d="M16.6875 5.87628V8.39628C16.6875 8.446 16.6678 8.49369 16.6326 8.52886C16.5974 8.56402 16.5497 8.58378 16.5 8.58378H15.7313C15.6815 8.58378 15.6338 8.56402 15.5987 8.52886C15.5635 8.49369 15.5438 8.446 15.5438 8.39628V7.64252L14.7825 8.40378C15.3255 9.1246 15.619 10.0026 15.6188 10.905C15.6188 11.0325 15.6113 11.16 15.6038 11.2838C15.6102 11.307 15.6127 11.331 15.6113 11.355C15.5337 12.1367 15.2358 12.8804 14.7522 13.4994C14.2686 14.1184 13.6191 14.5874 12.8794 14.8518C12.1397 15.1162 11.3401 15.1651 10.5737 14.9928C9.80724 14.8206 9.10547 14.4342 8.55001 13.8788C7.85717 13.1819 7.43225 12.263 7.35001 11.2838C7.34626 11.2425 7.34251 11.2013 7.34251 11.16C7.77351 10.9603 8.17077 10.6946 8.52001 10.3725C8.48672 10.5481 8.47039 10.7264 8.47126 10.905C8.47077 11.3992 8.59223 11.8859 8.82485 12.3219C9.05747 12.7579 9.39407 13.1298 9.80481 13.4046C10.2156 13.6793 10.6877 13.8485 11.1795 13.8972C11.6713 13.9458 12.1675 13.8723 12.6241 13.6832C13.0807 13.4942 13.4836 13.1954 13.7971 12.8134C14.1105 12.4313 14.3249 11.9779 14.4212 11.4932C14.5175 11.0084 14.4927 10.5075 14.349 10.0346C14.2053 9.5618 13.9472 9.13172 13.5975 8.78253C13.3866 8.57464 13.1481 8.39673 12.8888 8.25378H12.885C12.627 8.11591 12.3504 8.01613 12.0638 7.95752C11.8698 7.91988 11.6726 7.90105 11.475 7.90128C10.8807 7.90319 10.3001 8.08061 9.80626 8.41128C9.64263 8.51907 9.49057 8.64348 9.35251 8.78253C9.28364 8.85015 9.21855 8.92151 9.15751 8.99628C9.05505 9.12203 8.96347 9.25626 8.88376 9.39753C8.87626 9.40128 8.87251 9.40503 8.87626 9.40878C8.63903 9.74971 8.35064 10.052 8.02126 10.305C7.81095 10.4668 7.5877 10.6111 7.35376 10.7363C7.35001 10.74 7.34626 10.74 7.34251 10.7438C7.32822 10.7516 7.31313 10.7579 7.29751 10.7625C6.90405 10.9599 6.48097 11.0917 6.04501 11.1525C6.04061 11.1555 6.0353 11.1568 6.03001 11.1563V12.015H6.86251C6.91224 12.015 6.95993 12.0348 6.99509 12.0699C7.03025 12.1051 7.05001 12.1528 7.05001 12.2025V12.9713C7.05001 13.021 7.03025 13.0687 6.99509 13.1039C6.95993 13.139 6.91224 13.1588 6.86251 13.1588H6.03001V14.0025C6.02924 14.052 6.00923 14.0993 5.97424 14.1343C5.93924 14.1693 5.892 14.1893 5.84251 14.19H5.07376C5.02403 14.19 4.97634 14.1703 4.94118 14.1351C4.90601 14.0999 4.88626 14.0523 4.88626 14.0025V13.1588H4.05751C4.00778 13.1588 3.96009 13.139 3.92493 13.1039C3.88976 13.0687 3.87001 13.021 3.87001 12.9713V12.2025C3.87001 12.1528 3.88976 12.1051 3.92493 12.0699C3.96009 12.0348 4.00778 12.015 4.05751 12.015H4.88626V11.1563C3.89356 11.0224 2.98349 10.5319 2.32588 9.77634C1.66828 9.02075 1.30808 8.05169 1.31251 7.05002C1.31433 6.19034 1.58149 5.35218 2.07751 4.65002C2.45989 4.10914 2.9669 3.6683 3.55566 3.36478C4.14442 3.06126 4.79762 2.90399 5.46001 2.90627C5.67093 2.90686 5.88151 2.92315 6.09001 2.95502C6.71642 3.04791 7.31284 3.28446 7.83263 3.64617C8.35242 4.00788 8.78148 4.48493 9.08626 5.04002V5.04377C9.35923 5.53662 9.52773 6.08043 9.58126 6.64127V6.66003C9.58501 6.70502 9.59251 6.75003 9.59251 6.79503C9.41966 6.87227 9.25293 6.96253 9.09376 7.06502C8.84941 7.2141 8.62075 7.38748 8.41126 7.58252C8.49634 7.10644 8.46506 6.61684 8.32008 6.15546C8.1751 5.69407 7.92073 5.27457 7.57864 4.93271C7.23654 4.59085 6.81687 4.33677 6.35538 4.19211C5.8939 4.04745 5.40428 4.01651 4.92825 4.10191C4.45223 4.18732 4.0039 4.38655 3.62149 4.68262C3.23908 4.97869 2.93392 5.36282 2.73201 5.80228C2.53009 6.24175 2.43742 6.72351 2.46189 7.20652C2.48635 7.68953 2.62723 8.15946 2.87251 8.57628C3.26307 9.23134 3.88541 9.71583 4.61626 9.93378C4.72488 9.96451 4.83503 9.98955 4.94626 10.0088C5.47233 10.1008 6.01345 10.0502 6.51334 9.86226C7.01323 9.67431 7.45364 9.35586 7.78876 8.94003C7.79251 8.93628 7.79251 8.93628 7.79251 8.93253C7.83001 8.88753 7.86751 8.83878 7.90126 8.79003C7.90501 8.78628 7.90501 8.78253 7.91251 8.77878C7.92038 8.76265 8.02801 8.6089 8.03626 8.58378C8.03626 8.58378 8.03851 8.58115 8.04001 8.58002C8.32295 8.16233 8.68011 7.80009 9.09376 7.51128C9.19264 7.44074 9.29529 7.37564 9.40126 7.31628C9.62859 7.1805 9.87 7.06985 10.1213 6.98627C10.7643 6.76573 11.4516 6.70612 12.1229 6.81268C12.7943 6.91924 13.4294 7.18872 13.9725 7.59753L14.7338 6.83252H13.98C13.9303 6.83252 13.8826 6.81277 13.8474 6.77761C13.8123 6.74244 13.7925 6.69475 13.7925 6.64502V5.87628C13.7925 5.82655 13.8123 5.77886 13.8474 5.74369C13.8826 5.70853 13.9303 5.68878 13.98 5.68878H16.5C16.5497 5.68878 16.5974 5.70853 16.6326 5.74369C16.6678 5.77886 16.6875 5.82655 16.6875 5.87628Z" fill="#0A183F"/>
</g>
</svg>
