<svg width="20" height="20" viewBox="0 0 20 20" fill="none" xmlns="http://www.w3.org/2000/svg">
<g id="vuesax/bold/logout">
<g id="logout">
<path id="Vector" d="M6 18.3333H8.16667C10.8333 18.3333 12.5 16.6666 12.5 13.9999L12.5 10.6249H7.29167C6.95 10.6249 6.66667 10.3416 6.66667 9.99992C6.66667 9.65825 6.95 9.37492 7.29167 9.37492H12.5V5.99992C12.5 3.33325 10.8333 1.66658 8.16667 1.66658H6.00833C3.34166 1.66658 1.675 3.33325 1.675 5.99992L1.675 13.9999C1.66667 16.6666 3.33333 18.3333 6 18.3333Z" fill="#0A183F"/>
<path id="Vector_2" d="M16.2 10.625L14.475 12.35C14.35 12.475 14.2917 12.6333 14.2917 12.7916C14.2917 12.95 14.35 13.1166 14.475 13.2333C14.7167 13.475 15.1167 13.475 15.3584 13.2333L18.15 10.4416C18.3917 10.2 18.3917 9.79997 18.15 9.5583L15.3584 6.76663C15.1167 6.52497 14.7167 6.52497 14.475 6.76663C14.2334 7.0083 14.2334 7.4083 14.475 7.64997L16.2 9.37497H12.5V10.625H16.2Z" fill="#0A183F"/>
</g>
</g>
</svg>
