<svg width="16" height="16" viewBox="0 0 16 16" fill="none" xmlns="http://www.w3.org/2000/svg">
<g id="Group 2">
<path id="Union" fill-rule="evenodd" clip-rule="evenodd" d="M13.3553 12.2505C14.4153 10.957 15.0513 9.30277 15.0513 7.5C15.0513 3.35786 11.6935 0 7.55133 0C3.40919 0 0.0513306 3.35786 0.0513306 7.5C0.0513306 11.6421 3.40919 15 7.55133 15C9.35044 15 11.0016 14.3665 12.2939 13.3105L14.7149 15.7762C15.0051 16.0717 15.4799 16.0761 15.7755 15.7859C16.071 15.4957 16.0754 15.0209 15.7852 14.7253L13.3553 12.2505ZM7.55133 13.5C4.23762 13.5 1.55133 10.8137 1.55133 7.5C1.55133 4.18629 4.23762 1.5 7.55133 1.5C10.865 1.5 13.5513 4.18629 13.5513 7.5C13.5513 10.8137 10.865 13.5 7.55133 13.5Z" fill="white"/>
</g>
</svg>
